<svg width="470" height="512" viewBox="0 0 470 512" fill="none" xmlns="http://www.w3.org/2000/svg">
<path d="M362.667 0H149.333C128.602 0.027272 108.329 6.09505 90.9912 17.4613C73.6538 28.8276 60.0044 44.9997 51.712 64H21.3333C15.6754 64 10.2492 66.2476 6.24839 70.2484C2.24761 74.2492 0 79.6754 0 85.3333C0 90.9913 2.24761 96.4175 6.24839 100.418C10.2492 104.419 15.6754 106.667 21.3333 106.667H42.6667V149.333H21.3333C15.6754 149.333 10.2492 151.581 6.24839 155.582C2.24761 159.583 0 165.009 0 170.667C0 176.325 2.24761 181.751 6.24839 185.752C10.2492 189.752 15.6754 192 21.3333 192H42.6667V234.667H21.3333C15.6754 234.667 10.2492 236.914 6.24839 240.915C2.24761 244.916 0 250.342 0 256C0 261.658 2.24761 267.084 6.24839 271.085C10.2492 275.086 15.6754 277.333 21.3333 277.333H42.6667V320H21.3333C15.6754 320 10.2492 322.248 6.24839 326.248C2.24761 330.249 0 335.675 0 341.333C0 346.991 2.24761 352.418 6.24839 356.418C10.2492 360.419 15.6754 362.667 21.3333 362.667H42.6667V405.333H21.3333C15.6754 405.333 10.2492 407.581 6.24839 411.582C2.24761 415.582 0 421.009 0 426.667C0 432.325 2.24761 437.751 6.24839 441.752C10.2492 445.752 15.6754 448 21.3333 448H51.712C60.0044 467 73.6538 483.172 90.9912 494.539C108.329 505.905 128.602 511.973 149.333 512H362.667C390.946 511.966 418.057 500.717 438.054 480.721C458.051 460.724 469.299 433.613 469.333 405.333V106.667C469.299 78.3873 458.051 51.2759 438.054 31.2794C418.057 11.2828 390.946 0.0338743 362.667 0ZM426.667 405.333C426.667 422.307 419.924 438.586 407.922 450.588C395.919 462.591 379.641 469.333 362.667 469.333H149.333C132.359 469.333 116.081 462.591 104.079 450.588C92.0762 438.586 85.3333 422.307 85.3333 405.333V106.667C85.3333 89.6928 92.0762 73.4142 104.079 61.4118C116.081 49.4095 132.359 42.6667 149.333 42.6667H362.667C379.641 42.6667 395.919 49.4095 407.922 61.4118C419.924 73.4142 426.667 89.6928 426.667 106.667V405.333ZM256 256C272.974 256 289.253 249.257 301.255 237.255C313.257 225.253 320 208.974 320 192C320 175.026 313.257 158.748 301.255 146.745C289.253 134.743 272.974 128 256 128C239.026 128 222.747 134.743 210.745 146.745C198.743 158.748 192 175.026 192 192C192 208.974 198.743 225.253 210.745 237.255C222.747 249.257 239.026 256 256 256ZM362.667 384C362.667 389.658 360.419 395.084 356.418 399.085C352.418 403.086 346.991 405.333 341.333 405.333C335.675 405.333 330.249 403.086 326.248 399.085C322.248 395.084 320 389.658 320 384C320 367.026 313.257 350.747 301.255 338.745C289.253 326.743 272.974 320 256 320C239.026 320 222.747 326.743 210.745 338.745C198.743 350.747 192 367.026 192 384C192 389.658 189.752 395.084 185.752 399.085C181.751 403.086 176.325 405.333 170.667 405.333C165.009 405.333 159.583 403.086 155.582 399.085C151.581 395.084 149.333 389.658 149.333 384C153.835 243.029 358.208 243.072 362.667 384Z" fill="white"/>
</svg>
