<svg width="470" height="512" viewBox="0 0 470 512" fill="none" xmlns="http://www.w3.org/2000/svg">
<path d="M394.667 191.597H384V148.93C384 143.272 381.752 137.846 377.752 133.845C373.751 129.845 368.325 127.597 362.667 127.597C362.938 112.465 359.077 97.5453 351.498 84.4447C343.92 71.3442 332.912 60.559 319.659 53.2503C304.335 44.7217 286.799 41.0048 269.333 42.5836C267.166 42.8525 264.966 42.5557 262.947 41.722C260.928 40.8884 259.16 39.5462 257.813 37.8262C248.528 25.6622 236.475 15.8889 222.654 9.31828C208.833 2.74762 193.645 -0.430836 178.349 0.0468893C163.054 0.524614 148.093 4.64473 134.709 12.0651C121.326 19.4854 109.905 29.9917 101.397 42.7116C79.7556 44.0147 59.4252 53.5209 44.5489 69.293C29.6726 85.065 21.3702 105.916 21.3333 127.597C15.6754 127.597 10.2492 129.845 6.24839 133.845C2.24761 137.846 0 143.272 0 148.93V404.93C0.0338743 433.21 11.2828 460.321 31.2794 480.318C51.2759 500.314 78.3873 511.563 106.667 511.597H277.333C305.613 511.563 332.724 500.314 352.721 480.318C372.717 460.321 383.966 433.21 384 404.93H394.667C414.47 404.93 433.461 397.064 447.464 383.061C461.467 369.058 469.333 350.066 469.333 330.264V266.264C469.333 246.461 461.467 227.469 447.464 213.466C433.461 199.464 414.47 191.597 394.667 191.597ZM106.667 84.9302C107.894 84.9703 109.114 85.1202 110.315 85.3782C114.912 86.1258 119.628 85.3481 123.742 83.164C127.856 80.9799 131.142 77.5093 133.099 73.2822C136.999 65.0019 142.965 57.8646 150.422 52.5573C157.879 47.25 166.577 43.9511 175.678 42.9782C184.779 42.0053 193.978 43.3911 202.388 47.0022C210.799 50.6132 218.139 56.3281 223.701 63.5969C229.419 71.1907 237.008 77.1718 245.727 80.9558C254.447 84.7399 263.999 86.1975 273.451 85.1863C282.564 84.4685 291.684 86.4812 299.648 90.9676C305.996 94.706 311.23 100.073 314.808 106.513C318.387 112.953 320.179 120.232 320 127.597H234.667C217.693 127.597 201.414 134.34 189.412 146.342C177.41 158.344 170.667 174.623 170.667 191.597V255.597C170.667 261.255 168.419 266.681 164.418 270.682C160.418 274.683 154.991 276.93 149.333 276.93C143.675 276.93 138.249 274.683 134.248 270.682C130.248 266.681 128 261.255 128 255.597V191.597C128 174.623 121.257 158.344 109.255 146.342C97.2525 134.34 80.9739 127.597 64 127.597C64 116.281 68.4952 105.429 76.4968 97.427C84.4983 89.4255 95.3508 84.9302 106.667 84.9302ZM341.333 404.93C341.333 421.904 334.591 438.183 322.588 450.185C310.586 462.187 294.307 468.93 277.333 468.93H106.667C89.6928 468.93 73.4142 462.187 61.4118 450.185C49.4095 438.183 42.6667 421.904 42.6667 404.93V170.264H64C69.658 170.264 75.0842 172.511 79.0849 176.512C83.0857 180.513 85.3333 185.939 85.3333 191.597V255.597C85.3333 272.571 92.0762 288.849 104.079 300.852C116.081 312.854 132.359 319.597 149.333 319.597C166.307 319.597 182.586 312.854 194.588 300.852C206.591 288.849 213.333 272.571 213.333 255.597V191.597C213.333 185.939 215.581 180.513 219.582 176.512C223.583 172.511 229.009 170.264 234.667 170.264H341.333V404.93ZM426.667 330.264C426.667 338.751 423.295 346.89 417.294 352.891C411.293 358.892 403.154 362.264 394.667 362.264H384V234.264H394.667C403.154 234.264 411.293 237.635 417.294 243.636C423.295 249.637 426.667 257.777 426.667 266.264V330.264Z" fill="white"/>
</svg>
