<svg width="512" height="512" viewBox="0 0 512 512" fill="none" xmlns="http://www.w3.org/2000/svg">
<path d="M444.897 327.061L364.428 458.368C355.591 472.875 343.562 485.174 329.255 494.331C314.948 503.488 298.741 509.261 281.868 511.211C277.421 511.738 272.948 512.002 268.47 512C245.547 511.969 223.193 504.853 204.47 491.627C185.122 506.122 161.222 513.207 137.1 511.599C112.978 509.991 90.2295 499.795 72.9769 482.86C55.7242 465.925 45.1084 443.37 43.0528 419.281C40.9972 395.193 47.6379 371.166 61.7716 351.552L33.7182 323.541C21.7395 311.562 12.6263 297.027 7.06121 281.026C1.49611 265.026 -0.376687 247.973 1.58308 231.146C3.54284 214.318 9.28438 198.153 18.3777 183.859C27.471 169.565 39.6804 157.514 54.0916 148.608L177.121 72.5333C210.448 51.1739 249.641 40.8181 289.169 42.9272C328.697 45.0362 366.565 59.5036 397.43 84.288L432.822 48.896C434.79 46.8584 437.144 45.2332 439.747 44.1151C442.35 42.9971 445.149 42.4086 447.982 42.3839C450.814 42.3593 453.623 42.8991 456.245 43.9718C458.867 45.0444 461.249 46.6285 463.252 48.6315C465.255 50.6346 466.839 53.0165 467.912 55.6383C468.984 58.2601 469.524 61.0692 469.5 63.9018C469.475 66.7345 468.886 69.5338 467.768 72.1366C466.65 74.7393 465.025 77.0934 462.988 79.0613L427.638 114.432C451.347 144.133 465.654 180.233 468.729 218.112C471.803 255.991 463.505 293.925 444.897 327.061ZM171.958 461.803L92.6196 382.443C86.4196 393.531 84.0283 406.347 85.8125 418.925C87.5967 431.503 93.4578 443.148 102.497 452.075C111.615 460.736 123.213 466.33 135.668 468.075C148.123 469.819 160.811 467.626 171.958 461.803ZM383.606 129.003C359.917 105.085 328.732 90.0271 295.269 86.3496C261.806 82.6721 228.096 90.5975 199.777 108.8L76.5342 184.875C67.5964 190.399 60.0244 197.874 54.385 206.74C48.7457 215.606 45.1853 225.633 43.9705 236.07C42.7557 246.507 43.9179 257.083 47.3701 267.008C50.8222 276.932 56.475 285.946 63.9049 293.376L219.425 448.917C226.867 456.368 235.901 462.034 245.848 465.489C255.795 468.945 266.397 470.1 276.855 468.868C287.313 467.636 297.355 464.049 306.227 458.376C315.099 452.703 322.569 445.093 328.076 436.117L408.182 305.451C423.828 277.349 429.893 244.915 425.459 213.058C421.025 181.201 406.332 151.656 383.606 128.896V129.003ZM410.892 512C406.386 512.008 401.994 510.59 398.344 507.948C394.695 505.307 391.975 501.577 390.575 497.295C389.175 493.013 389.167 488.397 390.552 484.11C391.937 479.823 394.643 476.084 398.284 473.429C435.638 445.345 460.919 404.11 469.004 358.08C469.57 355.309 470.683 352.678 472.275 350.341C473.868 348.004 475.91 346.007 478.282 344.466C480.654 342.925 483.308 341.871 486.091 341.366C488.874 340.86 491.729 340.913 494.491 341.521C497.253 342.13 499.867 343.281 502.18 344.908C504.493 346.536 506.46 348.607 507.965 351.002C509.47 353.396 510.484 356.066 510.948 358.856C511.412 361.646 511.317 364.501 510.668 367.253C500.215 423.395 469.097 473.58 423.457 507.904C419.808 510.565 415.408 511.999 410.892 512ZM21.2382 122.432C17.298 122.414 13.4397 121.306 10.091 119.229C6.74225 117.153 4.03404 114.19 2.2666 110.668C0.499173 107.146 -0.258419 103.204 0.0778308 99.2783C0.41408 95.3524 1.83103 91.5964 4.17158 88.4266C38.9658 41.9325 90.1837 10.4602 147.382 0.426623C152.927 -0.704967 158.694 0.41245 163.415 3.53306C168.136 6.65366 171.424 11.5218 172.556 17.0666C173.687 22.6114 172.57 28.3786 169.449 33.0995C166.329 37.8205 161.46 41.1084 155.916 42.24C108.939 49.9972 66.7899 75.64 38.3049 113.792C36.329 116.461 33.7572 118.632 30.7943 120.132C27.8314 121.632 24.5592 122.42 21.2382 122.432Z" fill="white"/>
</svg>
