<svg width="512" height="512" viewBox="0 0 512 512" fill="none" xmlns="http://www.w3.org/2000/svg">
<path d="M256.079 20.3405C257.145 8.58578 267.684 -0.139549 279.247 1.01245C384.036 10.4631 473.7 84.8738 502.351 186.164C505.551 197.492 498.98 209.29 487.652 212.49C485.711 213.044 483.748 213.3 481.828 213.3C472.527 213.3 463.972 207.178 461.327 197.77C437.455 113.375 362.745 51.3804 275.428 43.5084C263.695 42.4418 255.033 32.0738 256.1 20.3405H256.079ZM372.345 434.804C337.721 457.375 297.487 469.3 255.993 469.3C144.825 469.3 53.4974 385.93 43.5348 275.38C42.4681 263.647 31.9934 255.028 20.3668 256.052C8.63344 257.119 -0.027889 267.487 1.03878 279.22C13.0068 411.914 122.596 511.967 255.993 511.967C305.785 511.967 354.084 497.631 395.641 470.559C405.519 464.116 408.313 450.911 401.871 441.034C395.428 431.156 382.18 428.404 372.345 434.804ZM21.4974 194.612L0.164111 23.9458C-0.646556 17.3964 1.57211 10.8685 6.24411 6.21778C10.8948 1.56712 17.4868 -0.587549 23.9721 0.137784L194.639 21.4711C205.305 22.7938 213.327 31.8818 213.327 42.6338C213.327 119.199 119.225 213.3 42.6601 213.3C31.9081 213.3 22.8201 205.279 21.4974 194.612ZM45.8814 45.8551L61.1561 167.903C104.953 155.743 155.769 104.927 167.929 61.1298L45.8814 45.8551ZM447.993 255.967C430.692 255.967 413.903 263.114 401.913 275.551C393.721 284.042 393.977 297.546 402.447 305.716C410.937 313.908 424.441 313.652 432.612 305.183C436.665 300.959 442.127 298.634 447.993 298.634C459.769 298.634 469.327 308.191 469.327 319.967C469.327 331.743 459.769 341.3 447.993 341.3H318.052C319.247 337.951 319.993 334.388 319.993 330.634C319.993 312.991 305.636 298.634 287.993 298.634H213.327C201.529 298.634 191.993 308.17 191.993 319.967C191.993 331.764 201.529 341.3 213.327 341.3H260.729C257.849 347.274 255.993 354.399 255.993 362.634C255.993 370.868 257.849 377.994 260.729 383.967H213.327C201.529 383.967 191.993 393.503 191.993 405.3C191.993 417.098 201.529 426.634 213.327 426.634H287.993C305.636 426.634 319.993 412.276 319.993 394.634C319.993 390.879 319.247 387.316 318.052 383.967H447.993C483.279 383.967 511.993 355.252 511.993 319.967C511.993 284.682 483.279 255.967 447.993 255.967ZM368.484 199.412C361.039 207.988 350.479 213.3 340.857 213.3H340.708C331.663 213.258 323.215 208.628 315.556 199.583C307.94 190.623 294.521 189.471 285.476 197.087C276.495 204.703 275.364 218.164 282.98 227.167C302.991 250.783 325.284 255.882 340.452 255.967H340.857C362.809 255.967 385.167 245.3 400.74 227.359C408.441 218.463 407.481 204.98 398.585 197.258C389.668 189.556 376.228 190.516 368.484 199.412ZM197.839 199.412C188.665 209.951 172.964 217.524 158.479 210.591C147.791 205.556 135.097 210.079 130.041 220.703C124.985 231.348 129.508 244.084 140.153 249.14C150.244 253.94 160.356 256.01 170.169 256.01C194.127 256.01 216.036 243.508 230.052 227.359C237.775 218.463 236.815 204.98 227.919 197.279C219.023 189.535 205.54 190.474 197.839 199.412Z" fill="white"/>
</svg>
