<svg width="512" height="512" viewBox="0 0 512 512" fill="none" xmlns="http://www.w3.org/2000/svg">
<path d="M405.333 85.3333H381.867C376.914 61.2568 363.816 39.6234 344.772 24.0793C325.732 8.53527 301.915 0.0310298 277.333 0H234.667C210.086 0.0310298 186.268 8.53527 167.227 24.0793C148.185 39.6234 135.085 61.2568 130.133 85.3333H106.667C78.3872 85.3672 51.2759 96.6161 31.2792 116.613C11.2828 136.609 0.0338742 163.721 0 192V405.333C0.0338742 433.613 11.2828 460.723 31.2792 480.72C51.2759 500.716 78.3872 511.966 106.667 512H405.333C433.613 511.966 460.723 500.716 480.72 480.72C500.716 460.723 511.966 433.613 512 405.333V192C511.966 163.721 500.716 136.609 480.72 116.613C460.723 96.6161 433.613 85.3672 405.333 85.3333ZM234.667 42.6667H277.333C290.523 42.7213 303.374 46.8497 314.126 54.4873C324.881 62.1247 333.01 72.898 337.408 85.3333H174.592C178.988 72.898 187.12 62.1247 197.873 54.4873C208.627 46.8497 221.477 42.7213 234.667 42.6667ZM106.667 128H405.333C422.306 128 438.585 134.743 450.588 146.745C462.589 158.748 469.333 175.026 469.333 192V256H42.6667V192C42.6667 175.026 49.4094 158.748 61.4118 146.745C73.4143 134.743 89.6927 128 106.667 128ZM405.333 469.333H106.667C89.6927 469.333 73.4143 462.589 61.4118 450.588C49.4094 438.585 42.6667 422.306 42.6667 405.333V298.667H234.667V320C234.667 325.658 236.914 331.085 240.915 335.084C244.916 339.086 250.342 341.333 256 341.333C261.658 341.333 267.084 339.086 271.085 335.084C275.086 331.085 277.333 325.658 277.333 320V298.667H469.333V405.333C469.333 422.306 462.589 438.585 450.588 450.588C438.585 462.589 422.306 469.333 405.333 469.333Z" fill="white"/>
</svg>
