<svg width="532" height="532" viewBox="0 0 532 532" fill="none" xmlns="http://www.w3.org/2000/svg">
<path d="M190.667 256H148C124.469 256 105.333 275.136 105.333 298.667V341.333C105.333 364.864 124.469 384 148 384H190.667C214.197 384 233.333 364.864 233.333 341.333V298.667C233.333 275.136 214.197 256 190.667 256ZM148 341.333V298.667H190.667V341.333H148ZM425.333 42.6667H404V21.3333C404 9.55733 394.464 0 382.667 0C370.869 0 361.333 9.55733 361.333 21.3333V42.6667H190.667V21.3333C190.667 9.55733 181.131 0 169.333 0C157.536 0 148 9.55733 148 21.3333V42.6667H126.667C67.8507 42.6667 20 90.5173 20 149.333V405.333C20 464.149 67.8507 512 126.667 512H425.333C484.149 512 532 464.149 532 405.333V149.333C532 90.5173 484.149 42.6667 425.333 42.6667ZM126.667 85.3333H425.333C460.619 85.3333 489.333 114.048 489.333 149.333V170.667H62.6667V149.333C62.6667 114.048 91.3813 85.3333 126.667 85.3333ZM425.333 469.333H126.667C91.3813 469.333 62.6667 440.619 62.6667 405.333V213.333H489.333V405.333C489.333 440.619 460.619 469.333 425.333 469.333Z" fill="white"/>
<line x1="503.716" y1="512" x2="20" y2="28.2843" stroke="white" stroke-width="40" stroke-linecap="round"/>
</svg>
