<svg width="512" height="512" viewBox="0 0 512 512" fill="none" xmlns="http://www.w3.org/2000/svg">
<path d="M256 171C230.684 171 205.937 178.507 184.887 192.572C163.838 206.637 147.431 226.628 137.743 250.017C128.055 273.405 125.521 299.142 130.46 323.972C135.398 348.801 147.589 371.609 165.49 389.51C183.392 407.411 206.199 419.602 231.029 424.54C255.858 429.479 281.595 426.945 304.984 417.257C328.372 407.569 348.363 391.162 362.428 370.113C376.493 349.063 384 324.316 384 299C383.966 265.063 370.47 232.525 346.472 208.528C322.475 184.53 289.937 171.034 256 171ZM256 384.333C239.123 384.333 222.624 379.329 208.591 369.952C194.558 360.576 183.621 347.248 177.162 331.656C170.704 316.063 169.014 298.905 172.306 282.352C175.599 265.799 183.726 250.594 195.66 238.66C207.594 226.726 222.799 218.599 239.352 215.306C255.905 212.014 273.063 213.704 288.656 220.162C304.248 226.621 317.576 237.558 326.952 251.591C336.329 265.624 341.333 282.123 341.333 299C341.333 321.632 332.343 343.337 316.34 359.34C300.337 375.343 278.632 384.333 256 384.333Z" fill="white"/>
<path d="M405.333 85.3333H394.496L347.904 24.9173C341.899 17.1905 334.215 10.9316 325.433 6.61449C316.651 2.29742 307.002 0.0354783 297.216 0L214.784 0C204.998 0.0354783 195.349 2.29742 186.567 6.61449C177.785 10.9316 170.101 17.1905 164.096 24.9173L117.504 85.3333H106.667C78.3873 85.3672 51.2759 96.6162 31.2794 116.613C11.2828 136.609 0.0338743 163.721 0 192L0 405.333C0.0338743 433.613 11.2828 460.724 31.2794 480.721C51.2759 500.717 78.3873 511.966 106.667 512H405.333C433.613 511.966 460.724 500.717 480.721 480.721C500.717 460.724 511.966 433.613 512 405.333V192C511.966 163.721 500.717 136.609 480.721 116.613C460.724 96.6162 433.613 85.3672 405.333 85.3333ZM197.888 50.9867C199.886 48.4065 202.447 46.316 205.375 44.8743C208.302 43.4326 211.52 42.6775 214.784 42.6667H297.216C300.479 42.6807 303.696 43.4371 306.623 44.8786C309.551 46.3201 312.112 48.4089 314.112 50.9867L340.608 85.3333H171.392L197.888 50.9867ZM469.333 405.333C469.333 422.307 462.591 438.586 450.588 450.588C438.586 462.591 422.307 469.333 405.333 469.333H106.667C89.6928 469.333 73.4142 462.591 61.4118 450.588C49.4095 438.586 42.6667 422.307 42.6667 405.333V192C42.6667 175.026 49.4095 158.748 61.4118 146.745C73.4142 134.743 89.6928 128 106.667 128H405.333C422.307 128 438.586 134.743 450.588 146.745C462.591 158.748 469.333 175.026 469.333 192V405.333Z" fill="white"/>
</svg>
