<svg width="513" height="470" viewBox="0 0 513 470" fill="none" xmlns="http://www.w3.org/2000/svg">
<path d="M470.56 90.7187L313.248 15.7747C278.62 -4.90932 235.52 -5.27633 200.544 14.8147L41.4624 90.7187C40.8654 91.0177 40.2464 91.3377 39.6704 91.6787C1.91841 113.265 -11.1876 161.368 10.3984 199.12C17.7154 211.918 28.4784 222.404 41.4624 229.386L85.3454 250.293V354.826C85.3714 401.569 115.786 442.865 160.417 456.757C191.476 465.742 223.681 470.141 256.012 469.813C288.338 470.175 320.543 465.813 351.607 456.864C396.238 442.973 426.653 401.676 426.679 354.933V250.25L469.346 229.855V405.812C469.346 417.594 478.897 427.145 490.679 427.145C502.461 427.145 512.012 417.594 512.012 405.812V149.812C512.154 124.761 492.374 101.619 470.56 90.7187ZM384.011 354.933C384.022 382.892 365.882 407.623 339.211 416.01C312.165 423.738 284.138 427.489 256.011 427.146C227.884 427.489 199.857 423.738 172.811 416.01C146.14 407.622 128 382.892 128.011 354.933V270.624L198.774 304.331C216.234 314.699 236.175 320.147 256.481 320.096C275.809 320.233 294.812 315.116 311.457 305.291L384.011 270.623V354.933ZM452.278 190.879L291.382 267.679C268.948 280.742 241.141 280.372 219.062 266.719L61.6434 191.839C44.0964 182.377 37.5424 160.482 47.0044 142.936C50.2044 137.002 55.0024 132.083 60.8544 128.735L220.747 52.3617C243.188 39.3277 270.98 39.6967 293.067 53.3217L450.379 128.266C461.948 134.69 469.186 146.821 469.344 160.053C469.365 172.587 462.911 184.243 452.278 190.879Z" fill="white"/>
</svg>
