<svg width="513" height="513" viewBox="0 0 513 513" fill="none" xmlns="http://www.w3.org/2000/svg">
<path d="M511.062 454.814C510.23 452.139 508.879 449.653 507.087 447.5C505.294 445.346 503.095 443.567 500.615 442.263C498.134 440.96 495.422 440.157 492.631 439.902C489.841 439.647 487.028 439.945 484.352 440.777L456.619 449.31L436.758 390.921C457.619 379.215 473.891 360.777 482.913 338.623C491.934 316.468 493.171 291.907 486.422 268.958L447.104 152.158C442.156 136.213 431.216 122.808 416.587 114.763C401.957 106.718 384.777 104.66 368.662 109.022L286.486 131.934C274.701 135.213 264.119 141.838 256.022 151.006C247.924 141.838 237.342 135.213 225.558 131.934L143.36 109.022C127.362 104.609 110.276 106.566 95.6891 114.482C81.1026 122.398 70.15 135.657 65.1309 151.476L25.3016 270.025C18.8167 292.957 20.2691 317.407 29.4233 339.409C38.5775 361.412 54.8966 379.677 75.7336 391.241L55.5949 449.438L27.7549 440.777C25.0795 439.937 22.2647 439.631 19.4712 439.879C16.6778 440.126 13.9604 440.921 11.4743 442.219C8.98815 443.516 6.78193 445.291 4.98159 447.441C3.18125 449.591 1.82205 452.075 0.981591 454.75C0.141131 457.426 -0.164128 460.241 0.0832442 463.034C0.330616 465.827 1.12577 468.545 2.42332 471.031C3.72086 473.517 5.49538 475.723 7.64556 477.524C9.79574 479.324 12.2795 480.683 14.9549 481.524L61.0349 495.838C61.3549 495.838 61.5469 496.201 61.8669 496.329C62.1869 496.457 62.9763 496.457 63.5309 496.606L110.059 511.049C115.462 512.729 121.312 512.195 126.321 509.562C131.33 506.93 135.088 502.415 136.768 497.012C138.449 491.608 137.914 485.759 135.281 480.75C132.649 475.741 128.134 471.983 122.731 470.302L96.3629 462.089L116.31 404.489C120.266 404.997 124.247 405.282 128.235 405.342C151.3 405.285 173.725 397.754 192.148 383.877C210.571 370 224 350.525 230.422 328.372L256.022 252.51L281.259 327.177C287.48 349.612 300.87 369.396 319.386 383.509C337.902 397.622 360.527 405.29 383.808 405.342C387.953 405.303 392.092 405.018 396.203 404.489L415.787 462.089L389.248 470.324C383.845 472.004 379.33 475.762 376.698 480.771C374.065 485.78 373.531 491.63 375.211 497.033C376.891 502.436 380.649 506.951 385.658 509.583C390.667 512.216 396.517 512.751 401.92 511.07L448.32 496.67C448.875 496.521 449.451 496.67 450.006 496.393C450.56 496.116 450.56 495.988 450.902 495.86L497.024 481.545C499.702 480.713 502.19 479.362 504.345 477.568C506.501 475.774 508.281 473.573 509.585 471.09C510.889 468.607 511.69 465.892 511.944 463.099C512.197 460.306 511.897 457.491 511.062 454.814ZM284.971 183.305C286.328 180.805 288.177 178.606 290.406 176.839C292.635 175.072 295.198 173.773 297.942 173.022L380.096 150.132C381.93 149.618 383.824 149.353 385.728 149.342C390.42 149.392 394.971 150.952 398.706 153.792C402.441 156.632 405.162 160.6 406.464 165.108L422.699 213.342H287.808L283.222 199.753C282.404 197.033 282.137 194.177 282.437 191.353C282.738 188.528 283.599 185.792 284.971 183.305ZM126.272 149.342C128.182 149.346 130.084 149.604 131.926 150.11L214.102 173.022C219.53 174.52 224.147 178.103 226.945 182.99C229.742 187.878 230.493 193.674 229.035 199.113L224.235 213.342H89.3443L105.771 164.489C107.127 160.108 109.847 156.276 113.535 153.551C117.224 150.826 121.687 149.351 126.272 149.342ZM189.718 315.742C186.31 327.92 179.372 338.815 169.778 347.052C160.184 355.29 148.365 360.501 135.813 362.028C123.26 363.554 110.537 361.329 99.2482 355.631C87.9595 349.934 78.6116 341.02 72.3843 330.014C64.1394 315.637 61.9008 298.587 66.1549 282.569L74.9869 256.009H209.856L189.718 315.742ZM352.534 354.313C345.058 350.071 338.507 344.378 333.264 337.567C328.022 330.756 324.194 322.966 322.006 314.654L302.187 256.009H437.078L445.611 281.481C449.016 293.68 448.724 306.615 444.774 318.648C440.823 330.681 433.391 341.272 423.419 349.079C413.446 356.887 401.381 361.559 388.751 362.506C376.122 363.453 363.495 360.631 352.47 354.398L352.534 354.313Z" fill="white"/>
<path d="M331.819 83.2089C334.338 84.4753 337.082 85.2299 339.894 85.4292C342.707 85.6284 345.53 85.2683 348.202 84.3697C350.874 83.471 353.342 82.0517 355.462 80.1937C357.582 78.3357 359.313 76.0759 360.555 73.5449L381.888 30.8782C384.417 25.8144 384.831 19.9532 383.039 14.5842C381.247 9.21515 377.395 4.77802 372.331 2.24891C367.267 -0.280192 361.406 -0.694097 356.037 1.09825C350.668 2.8906 346.231 6.74238 343.702 11.8062L322.368 54.4729C321.094 56.9788 320.328 59.7117 320.114 62.5146C319.9 65.3176 320.241 68.1352 321.12 70.8056C321.998 73.476 323.395 75.9465 325.231 78.0751C327.068 80.2036 329.306 81.9484 331.819 83.2089Z" fill="white"/>
<path d="M151.595 73.5449C154.124 78.6229 158.567 82.4883 163.946 84.2906C166.609 85.1831 169.422 85.5421 172.225 85.3474C175.027 85.1526 177.763 84.4079 180.278 83.1556C182.792 81.9033 185.035 80.168 186.879 78.0489C188.723 75.9297 190.131 73.4681 191.023 70.8047C191.916 68.1412 192.275 65.3281 192.08 62.5259C191.885 59.7237 191.141 56.9873 189.888 54.4729L168.555 11.8062C167.303 9.29887 165.569 7.06271 163.452 5.22543C161.336 3.38815 158.878 1.98573 156.22 1.09825C150.851 -0.694097 144.989 -0.280192 139.926 2.24891C134.862 4.77802 131.01 9.21515 129.218 14.5842C127.425 19.9532 127.839 25.8144 130.368 30.8782L151.595 73.5449Z" fill="white"/>
<path d="M256.022 85.3424C261.68 85.3424 267.106 83.0948 271.107 79.094C275.107 75.0932 277.355 69.667 277.355 64.009V21.3424C277.355 15.6844 275.107 10.2582 271.107 6.25742C267.106 2.25665 261.68 0.0090332 256.022 0.0090332C250.364 0.0090332 244.937 2.25665 240.937 6.25742C236.936 10.2582 234.688 15.6844 234.688 21.3424V64.009C234.688 69.667 236.936 75.0932 240.937 79.094C244.937 83.0948 250.364 85.3424 256.022 85.3424Z" fill="white"/>
</svg>
