<svg width="513" height="470" viewBox="0 0 513 470" fill="none" xmlns="http://www.w3.org/2000/svg">
<path d="M490.788 426.645H469.454V115.477L497.166 87.7867C511.929 73.024 516.281 51.008 508.302 31.744C500.302 12.4587 481.657 2.7354e-05 460.772 2.7354e-05H51.4489C30.5849 -0.021306 11.9396 12.4374 3.93961 31.7227C-4.03906 51.008 0.312941 73.0027 15.0756 87.7867L42.7876 115.477V426.645H21.4543C9.65694 426.645 0.120941 436.203 0.120941 447.979C0.120941 459.755 9.65694 469.312 21.4543 469.312H106.788C142.073 469.312 170.788 440.597 170.788 405.312V298.645C170.788 251.584 209.06 213.312 256.121 213.312C303.182 213.312 341.454 251.584 341.454 298.645V405.312C341.454 440.597 370.169 469.312 405.454 469.312H490.788C502.585 469.312 512.121 459.755 512.121 447.979C512.121 436.203 502.585 426.645 490.788 426.645ZM43.3423 48.064C44.1743 46.0374 46.3503 42.6454 51.4489 42.6454H460.793C465.892 42.6454 468.068 46.0374 468.9 48.064C469.732 50.0907 470.606 54.016 467.001 57.6214L439.289 85.312H72.9529L45.2409 57.6214C41.6356 54.016 42.5103 50.0907 43.3423 48.064ZM384.121 405.312V298.645C384.121 228.053 326.713 170.645 256.121 170.645C185.529 170.645 128.121 228.053 128.121 298.645V405.312C128.121 417.067 118.564 426.645 106.788 426.645H85.4543V127.979H426.788V426.645H405.454C393.678 426.645 384.121 417.067 384.121 405.312Z" fill="white"/>
</svg>
