<svg width="532" height="532" viewBox="0 0 532 532" fill="none" xmlns="http://www.w3.org/2000/svg">
<path d="M276 512C134.837 512 20 397.163 20 256C20 114.837 134.837 0 276 0C417.163 0 532 114.837 532 256C532 397.163 417.163 512 276 512ZM276 42.6667C158.368 42.6667 62.6667 138.368 62.6667 256C62.6667 373.632 158.368 469.333 276 469.333C393.632 469.333 489.333 373.632 489.333 256C489.333 138.368 393.632 42.6667 276 42.6667ZM382.667 256C382.667 244.203 373.131 234.667 361.333 234.667H297.333V128C297.333 116.203 287.776 106.667 276 106.667C264.224 106.667 254.667 116.203 254.667 128V256C254.667 267.797 264.224 277.333 276 277.333H361.333C373.131 277.333 382.667 267.797 382.667 256Z" fill="white"/>
<line x1="503.716" y1="512" x2="20" y2="28.2843" stroke="white" stroke-width="40" stroke-linecap="round"/>
</svg>
