<svg width="512" height="512" viewBox="0 0 512 512" fill="none" xmlns="http://www.w3.org/2000/svg">
<path d="M316.395 362.667C310.933 362.667 305.472 360.576 301.312 356.416C292.971 348.075 292.971 334.592 301.312 326.251L356.416 271.147C360.427 267.115 362.667 261.76 362.667 256.043C362.667 250.325 360.448 244.992 356.416 240.96L301.312 185.835C292.971 177.493 292.971 163.989 301.312 155.669C309.653 147.328 323.136 147.328 331.477 155.669L386.581 210.773C398.656 222.848 405.333 238.933 405.333 256.021C405.333 273.109 398.677 289.195 386.581 301.291L331.477 356.395C327.317 360.555 321.856 362.667 316.395 362.667ZM210.688 356.309C219.029 347.968 219.029 334.485 210.688 326.144L155.584 271.04C151.552 267.008 149.333 261.653 149.333 255.936C149.333 250.219 151.552 244.885 155.584 240.853L210.688 185.749C219.029 177.408 219.029 163.925 210.688 155.584C202.347 147.243 188.864 147.243 180.523 155.584L125.419 210.688C113.323 222.784 106.667 238.848 106.667 255.957C106.667 273.067 113.323 289.131 125.419 301.227L180.523 356.331C184.683 360.491 190.144 362.581 195.605 362.581C201.067 362.581 206.528 360.469 210.688 356.309ZM512 405.333V106.667C512 47.8507 464.149 0 405.333 0H106.667C47.8507 0 0 47.8507 0 106.667V405.333C0 464.149 47.8507 512 106.667 512H405.333C464.149 512 512 464.149 512 405.333ZM405.333 42.6667C440.619 42.6667 469.333 71.3813 469.333 106.667V405.333C469.333 440.619 440.619 469.333 405.333 469.333H106.667C71.3813 469.333 42.6667 440.619 42.6667 405.333V106.667C42.6667 71.3813 71.3813 42.6667 106.667 42.6667H405.333Z" fill="white"/>
</svg>
