<svg width="447" height="512" viewBox="0 0 447 512" fill="none" xmlns="http://www.w3.org/2000/svg">
<path d="M441.349 389.696C435.312 399.552 424.795 404.992 414.043 404.992C408.326 404.992 402.565 403.477 397.36 400.277L255.045 313.131V480C255.045 497.664 240.709 512 223.045 512C205.381 512 191.045 497.664 191.045 480V313.109L48.7094 400.277C43.5041 403.456 37.7228 404.992 32.0268 404.992C21.2534 404.992 10.7574 399.552 4.72008 389.696C-4.51725 374.635 0.218746 354.923 15.3014 345.707L161.755 256.021L15.3014 166.315C0.218746 157.077 -4.51725 137.387 4.72008 122.325C13.9574 107.243 33.6907 102.528 48.7094 111.744L191.045 198.912V32C191.045 14.336 205.381 0 223.045 0C240.709 0 255.045 14.336 255.045 32V198.869L397.36 111.723C412.4 102.507 432.133 107.243 441.349 122.304C450.565 137.365 445.851 157.077 430.768 166.293L284.315 255.979L430.768 345.664C445.851 354.901 450.587 374.592 441.349 389.653V389.696Z" fill="white"/>
</svg>
