<svg width="427" height="512" viewBox="0 0 427 512" fill="none" xmlns="http://www.w3.org/2000/svg">
<path d="M342.499 118.133C319.058 87.7235 294.827 56.2909 277.684 22.2779C270.447 7.88377 256.057 -0.795394 240.281 0.0575941C225.059 0.931907 212.228 10.6347 206.784 25.3914C199.483 45.2873 192.118 81.646 192.118 118.047C192.118 165.154 206.806 196.97 218.59 222.56C228.603 244.247 236.502 261.371 234.517 283.271C232.595 304.148 214.321 320.27 191.243 320.099C136.056 319.481 122.008 249.663 119.98 191.234C119.297 172.105 106.381 155.941 87.8503 151.037C69.3195 146.153 50.0629 153.851 40.0076 170.144C14.2183 211.961 0 257.639 0 298.753C0 416.337 96.5606 512 213.616 512C331.269 511.296 426.976 415.612 426.976 299.115C428.171 229.256 384.62 172.766 342.499 118.133ZM213.339 469.372C119.831 469.372 42.6762 392.838 42.6762 298.774C42.6762 265.934 54.9518 227.208 77.304 192.726C81.1254 301.568 121.411 361.959 190.773 362.748H191.776C235.776 362.748 273.136 329.738 277.043 287.174C280.075 253.907 268.547 228.914 257.381 204.732C246.28 180.678 234.815 155.813 234.815 118.069C234.815 93.4812 239 67.2304 243.846 49.7015C262.27 83.949 285.839 114.529 308.682 144.191C348.028 195.264 385.196 243.479 384.278 298.796C384.278 392.304 307.615 468.839 213.36 469.393L213.339 469.372Z" fill="white"/>
</svg>
