<svg width="513" height="470" viewBox="0 0 513 470" fill="none" xmlns="http://www.w3.org/2000/svg">
<path d="M501.184 213.675C490.795 199.723 474.859 191.701 457.451 191.701H448V149.312C448 90.496 400.149 42.6453 341.333 42.6453H233.472C230.187 42.6453 226.859 41.856 223.936 40.4053L156.629 6.74134C147.797 2.32534 137.899 8.91429e-06 128 8.91429e-06H85.3333C38.272 -0.0213244 0 38.2507 0 85.312V362.645C0 421.461 47.8507 469.312 106.667 469.312H374.571C422.059 469.312 463.104 438.763 477.013 392.363L509.696 261.888C514.688 245.205 511.573 227.648 501.184 213.675ZM42.6667 362.645V85.312C42.6667 61.7813 61.8027 42.6453 85.3333 42.6453H128C131.285 42.6453 134.613 43.4347 137.536 44.8853L204.843 78.5493C213.675 82.9653 223.573 85.2907 233.472 85.2907H341.333C376.619 85.2907 405.333 114.005 405.333 149.291V191.68H183.787C147.52 191.68 115.136 214.699 102.955 249.707L56.2347 401.984C47.744 391.125 42.6667 377.472 42.6667 362.645ZM468.565 250.581L435.883 381.035C427.691 408.32 403.051 426.645 374.571 426.645H106.667C102.229 426.645 97.8987 426.197 93.7173 425.323L143.509 262.997C149.461 245.867 165.675 234.368 183.808 234.368H457.472C462.635 234.368 465.643 237.355 466.965 239.147C468.288 240.939 470.293 244.672 468.565 250.581Z" fill="white"/>
</svg>
