<svg width="513" height="470" viewBox="0 0 513 470" fill="none" xmlns="http://www.w3.org/2000/svg">
<path d="M0 362.667V85.3333C0 38.272 38.272 0 85.3333 0H128C137.899 0 147.797 2.32533 156.629 6.74133L223.936 40.4053C226.88 41.8773 230.187 42.6453 233.472 42.6453H341.333C400.149 42.6453 448 90.496 448 149.312H213.845C157.568 149.312 107.115 186.987 91.0933 241.109L34.0693 440.341C13.2267 420.864 0 393.365 0 362.667ZM501.184 213.696C490.965 199.979 475.392 192.107 458.347 191.829C458.027 191.829 457.771 192 457.451 192H213.845C176.341 192 142.699 217.109 132.053 253.056L71.936 463.04C82.88 466.837 94.4427 469.333 106.667 469.333H374.571C422.059 469.333 463.104 438.784 477.013 392.384L509.696 261.909C514.688 245.227 511.573 227.669 501.184 213.696Z" fill="white"/>
</svg>
