<svg width="514" height="513" viewBox="0 0 514 513" fill="none" xmlns="http://www.w3.org/2000/svg">
<path d="M506.925 6.25823C500.598 -0.0687674 491.279 -1.60777 483.498 1.68398C473.666 3.15886 384.938 17.1167 384.938 39.4109C384.938 43.9424 388.551 69.571 403.171 79.7882L288.451 194.508C267.183 157.743 272.249 109.82 303.67 78.3989C307.839 74.2307 309.933 68.7587 309.933 63.2867C309.933 57.8147 307.839 52.3427 303.67 48.1746C295.313 39.817 281.804 39.817 273.446 48.1746C259.766 61.8546 250.981 69.9771 244.568 75.9194C229.392 89.9627 225.16 94.2805 207.953 120.272C184.975 155.007 163.194 169.072 114.737 180.529C108.773 181.939 103.045 183.2 97.5512 184.397C71.4737 190.105 48.9659 195.042 34.4309 209.556C-40.5954 284.582 22.3326 349.306 77.8435 406.398L103.771 433.352C144.106 475.781 178.947 512.418 222.36 512.953C222.702 512.953 223.022 512.953 223.343 512.953C247.561 512.953 270.689 501.602 294.009 478.282C309.121 463.17 317.137 436.644 326.029 403.491C338.277 357.92 350.781 341.461 392.932 315.426C424.952 295.654 453.702 260.77 454.899 259.295C461.739 250.938 461.268 238.797 453.808 230.995C446.349 223.193 434.25 222.188 425.572 228.644C393.766 252.37 351.273 250.745 317.329 226.015L506.925 36.4825C515.283 28.1249 515.283 14.6159 506.925 6.25823ZM284.754 392.462C279.688 411.336 272.014 439.893 263.806 448.101C248.737 463.17 234.65 470.267 222.937 470.245C197.543 469.925 168.452 439.337 134.786 403.919L108.517 376.601C42.5534 308.757 23.1449 281.312 64.6765 239.78C70.3409 234.116 88.8302 230.054 106.721 226.143C112.428 224.882 118.392 223.578 124.591 222.124C170.953 211.159 203.315 197.073 233.347 158.234C235.741 186.278 243.628 216.097 270.347 242.815C297.066 269.534 328.359 283.556 357.557 287.404C315.705 315.554 298.519 341.247 284.754 392.462ZM269 297.621C277.358 305.978 277.358 319.487 269 327.845C264.832 332.013 259.36 334.108 253.888 334.108C248.416 334.108 242.944 332.013 238.776 327.845L185.338 274.408C176.981 266.05 176.981 252.541 185.338 244.183C193.696 235.826 207.205 235.826 215.563 244.183L269 297.621ZM209.941 356.68C218.299 365.038 218.299 378.547 209.941 386.904C205.773 391.072 200.301 393.167 194.829 393.167C189.357 393.167 183.885 391.072 179.717 386.904L126.279 333.467C117.922 325.109 117.922 311.6 126.279 303.242C134.637 294.885 148.146 294.885 156.503 303.242L209.941 356.68Z" fill="white"/>
</svg>
