<svg width="512" height="342" viewBox="0 0 512 342" fill="none" xmlns="http://www.w3.org/2000/svg">
<path d="M490.667 149.333H21.3333C9.55126 149.333 0 158.885 0 170.667C0 182.449 9.55126 192 21.3333 192H490.667C502.449 192 512 182.449 512 170.667C512 158.885 502.449 149.333 490.667 149.333Z" fill="white"/>
<path d="M490.667 0H21.3333C9.55126 0 0 9.55126 0 21.3333C0 33.1154 9.55126 42.6667 21.3333 42.6667H490.667C502.449 42.6667 512 33.1154 512 21.3333C512 9.55126 502.449 0 490.667 0Z" fill="white"/>
<path d="M490.667 298.667H21.3333C9.55126 298.667 0 308.218 0 320C0 331.782 9.55126 341.333 21.3333 341.333H490.667C502.449 341.333 512 331.782 512 320C512 308.218 502.449 298.667 490.667 298.667Z" fill="white"/>
</svg>
