<svg width="512" height="512" viewBox="0 0 512 512" fill="none" xmlns="http://www.w3.org/2000/svg">
<path d="M480 192.001C488.487 192.001 496.626 188.63 502.627 182.629C508.629 176.627 512 168.488 512 160.001C512 151.514 508.629 143.375 502.627 137.374C496.626 131.373 488.487 128.001 480 128.001H402.603L415.68 36.5239C416.274 32.3636 416.043 28.1271 414.999 24.0562C413.956 19.9853 412.121 16.1598 409.599 12.7981C407.077 9.43634 403.918 6.60423 400.302 4.46345C396.686 2.32266 392.683 0.915128 388.523 0.321203C384.362 -0.272722 380.126 -0.0414044 376.055 1.00195C371.984 2.0453 368.159 3.88026 364.797 6.40205C361.435 8.92384 358.603 12.0831 356.462 15.6994C354.321 19.3157 352.914 23.3183 352.32 27.4785L337.963 128.001H210.603L223.68 36.5239C224.274 32.3636 224.043 28.1271 222.999 24.0562C221.956 19.9853 220.121 16.1598 217.599 12.7981C215.077 9.43634 211.918 6.60423 208.302 4.46345C204.686 2.32266 200.683 0.915128 196.523 0.321203C192.362 -0.272722 188.126 -0.0414044 184.055 1.00195C179.984 2.0453 176.159 3.88026 172.797 6.40205C169.435 8.92384 166.603 12.0831 164.462 15.6994C162.321 19.3157 160.914 23.3183 160.32 27.4785L145.963 128.001H53.3333C44.8464 128.001 36.7071 131.373 30.7059 137.374C24.7048 143.375 21.3333 151.514 21.3333 160.001C21.3333 168.488 24.7048 176.627 30.7059 182.629C36.7071 188.63 44.8464 192.001 53.3333 192.001H136.811L118.528 320.001H32C23.5131 320.001 15.3737 323.373 9.37258 329.374C3.37142 335.375 0 343.514 0 352.001C0 360.488 3.37142 368.627 9.37258 374.629C15.3737 380.63 23.5131 384.001 32 384.001H109.397L96.32 475.479C95.7261 479.639 95.9574 483.875 97.0007 487.946C98.0441 492.017 99.8791 495.843 102.401 499.204C107.494 505.994 115.075 510.482 123.477 511.681C131.879 512.881 140.414 510.693 147.203 505.6C150.565 503.079 153.397 499.919 155.538 496.303C157.679 492.687 159.086 488.684 159.68 484.524L174.037 384.001H301.397L288.32 475.479C287.121 483.881 289.308 492.415 294.401 499.204C299.494 505.994 307.075 510.482 315.477 511.681C323.879 512.881 332.414 510.693 339.203 505.6C345.992 500.507 350.481 492.926 351.68 484.524L366.037 384.001H458.667C467.154 384.001 475.293 380.63 481.294 374.629C487.295 368.627 490.667 360.488 490.667 352.001C490.667 343.514 487.295 335.375 481.294 329.374C475.293 323.373 467.154 320.001 458.667 320.001H375.189L393.472 192.001H480ZM310.528 320.001H183.189L201.472 192.001H328.811L310.528 320.001Z" fill="white"/>
</svg>
