<svg width="427" height="512" viewBox="0 0 427 512" fill="none" xmlns="http://www.w3.org/2000/svg">
<path d="M362.667 179.712V149.333C362.667 109.728 346.933 71.7442 318.928 43.7387C290.923 15.7333 252.939 0 213.333 0C173.728 0 135.744 15.7333 107.739 43.7387C79.7333 71.7442 64 109.728 64 149.333V179.712C44.9997 188.004 28.8276 201.654 17.4613 218.991C6.09505 236.329 0.027272 256.602 0 277.333V405.333C0.0338743 433.613 11.2828 460.724 31.2794 480.721C51.2759 500.717 78.3873 511.966 106.667 512H320C348.279 511.966 375.391 500.717 395.387 480.721C415.384 460.724 426.633 433.613 426.667 405.333V277.333C426.639 256.602 420.572 236.329 409.205 218.991C397.839 201.654 381.667 188.004 362.667 179.712ZM106.667 149.333C106.667 121.044 117.905 93.9125 137.909 73.9086C157.912 53.9047 185.044 42.6667 213.333 42.6667C241.623 42.6667 268.754 53.9047 288.758 73.9086C308.762 93.9125 320 121.044 320 149.333V170.667H106.667V149.333ZM384 405.333C384 422.307 377.257 438.586 365.255 450.588C353.253 462.591 336.974 469.333 320 469.333H106.667C89.6928 469.333 73.4142 462.591 61.4118 450.588C49.4095 438.586 42.6667 422.307 42.6667 405.333V277.333C42.6667 260.359 49.4095 244.081 61.4118 232.078C73.4142 220.076 89.6928 213.333 106.667 213.333H320C336.974 213.333 353.253 220.076 365.255 232.078C377.257 244.081 384 260.359 384 277.333V405.333Z" fill="white"/>
<path d="M213.333 296C207.675 296 202.249 298.248 198.248 302.248C194.248 306.249 192 311.675 192 317.333V360C192 365.658 194.248 371.084 198.248 375.085C202.249 379.086 207.675 381.333 213.333 381.333C218.991 381.333 224.417 379.086 228.418 375.085C232.419 371.084 234.667 365.658 234.667 360V317.333C234.667 311.675 232.419 306.249 228.418 302.248C224.417 298.248 218.991 296 213.333 296Z" fill="white"/>
</svg>
