<svg width="512" height="512" viewBox="0 0 512 512" fill="none" xmlns="http://www.w3.org/2000/svg">
<path d="M441.173 24.8011L440.725 24.6517L382.805 5.45173C362.799 -1.19028 341.277 -1.77657 320.939 3.7664L201.984 38.3051C187.419 42.165 171.962 40.8065 158.293 34.4651L147.627 29.5157C131.426 22.7781 113.813 20.141 96.3498 21.838C78.8861 23.5351 62.1108 29.5139 47.5104 39.2447C32.9101 48.9754 20.9356 62.1576 12.6482 77.6229C4.36077 93.0883 0.0163688 110.359 0 127.905L0 385.505C0.044834 408.573 7.54756 431.009 21.3886 449.464C35.2296 467.918 54.6669 481.403 76.8 487.905L138.005 507.105C148.331 510.315 159.086 511.934 169.899 511.905C179.537 512.027 189.141 510.726 198.4 508.044L322.133 473.91C333.441 470.844 345.373 470.94 356.629 474.188L406.613 488.609C419.162 491.643 432.236 491.79 444.849 489.039C457.463 486.288 469.288 480.711 479.434 472.728C489.58 464.745 497.783 454.563 503.423 442.951C509.064 431.338 511.997 418.597 512 405.686V125.26C511.968 103.262 505.148 81.8093 492.473 63.8303C479.797 45.8513 461.882 32.2216 441.173 24.8011ZM89.088 447.03C75.7399 443.171 64.0019 435.089 55.633 423.997C47.264 412.905 42.7147 399.4 42.6667 385.505V127.905C42.563 117.338 45.1191 106.915 50.0997 97.5951C55.0803 88.2751 62.3254 80.3577 71.168 74.5717C81.6897 67.5924 94.0407 63.8812 106.667 63.9051C114.809 63.9073 122.87 65.5167 130.389 68.6411C130.389 68.6411 146.283 75.4464 149.312 76.5344V465.868L89.088 447.03ZM192 465.548V82.6571C199.246 82.2726 206.436 81.1648 213.461 79.3504L320 48.3957V430.838L192 465.548ZM469.333 405.686C469.338 412.077 467.907 418.386 465.146 424.149C462.386 429.913 458.366 434.982 453.384 438.983C448.401 442.985 442.584 445.816 436.361 447.268C430.138 448.72 423.668 448.755 417.429 447.372L362.667 431.948V44.1717L427.051 65.0571C439.424 69.5404 450.119 77.7222 457.683 88.4922C465.248 99.2622 469.315 112.099 469.333 125.26V405.686Z" fill="white"/>
</svg>
