<svg width="512" height="513" viewBox="0 0 512 513" fill="none" xmlns="http://www.w3.org/2000/svg">
<path d="M457.21 30.6783C421.818 18.2623 386.81 9.60099 353.167 4.86499C319.524 0.128985 283.471 -1.12968 245.924 1.00365C207.034 3.26498 174.82 32.4703 169.274 70.4437L163.194 112.236C161.722 112.428 160.271 112.62 158.799 112.812C125.156 117.548 90.1483 126.209 54.7563 138.625C17.9776 151.553 -4.69969 188.545 0.82564 226.625L22.159 373.142C32.3563 443.308 125.754 487.361 180.516 507.393C188.986 510.508 197.754 512.022 206.458 512.022C221.839 512.022 236.943 507.265 249.572 498.028C281.85 474.476 325.199 437.59 348.495 395.393C349.05 394.39 349.519 393.345 349.903 392.3C404.964 369.836 480.719 327.958 489.85 265.153L511.183 118.636C516.708 80.5557 494.031 43.5637 457.231 30.6357L457.21 30.6783ZM224.42 463.574C216.164 469.612 205.22 470.998 195.151 467.35C118.308 439.254 69.4123 401.75 64.3776 367.02L43.0443 220.502C40.4203 202.582 51.3003 185.089 68.8576 178.924C98.831 168.428 128.356 160.833 156.772 156.289L147.94 216.982C147.279 221.548 146.98 226.092 147.023 230.636C140.239 225.985 132.708 223.766 125.071 224.876C109.668 227.094 98.5536 241.964 94.3723 261.484C92.9856 267.969 98.511 273.836 105.06 272.897L153.743 265.942C159.183 280.982 167.61 295.532 177.679 309.27C148.58 318.892 127.802 343.788 119.247 374.06C116.474 383.894 127.652 391.745 136.143 386.07C164.559 367.062 190.5 357.27 219.834 355.436C234.468 368.876 249.21 380.481 261.775 389.676C270.778 396.268 280.975 400.641 291.599 402.689C269.924 428.566 241.892 450.838 224.399 463.617L224.42 463.574ZM468.922 112.513L447.588 259.03C442.554 293.761 393.658 331.265 316.836 359.34C306.767 363.009 295.631 361.473 287.012 355.18C221.348 307.137 185.167 257.772 190.202 223.105L211.514 76.5877C214.138 58.561 229.647 44.6943 248.399 43.6063C259.386 42.9663 270.202 42.6463 280.868 42.6463C303.908 42.6463 326.138 44.1397 347.236 47.0837C378.106 51.4143 410.34 59.4357 443.108 70.913C460.687 77.0997 471.546 94.5717 468.943 112.492L468.922 112.513ZM395.364 241.516C375.034 268.78 343.588 285.078 310.031 280.321C276.495 275.564 250.916 251.137 239.034 219.329C235.343 209.452 246.287 200.513 255.482 205.676C298.639 229.889 335.226 235.116 383.46 223.894C393.679 221.526 401.636 233.089 395.364 241.516ZM414.052 155.969C415.439 162.454 409.914 168.321 403.364 167.382L350.714 159.852C344.164 158.913 340.495 151.745 343.652 145.9C353.124 128.321 367.951 117.121 383.375 119.361C398.778 121.58 409.871 136.449 414.052 155.969ZM244.068 131.692C253.54 114.113 268.367 102.913 283.791 105.153C299.194 107.372 310.308 122.241 314.49 141.761C315.876 148.246 310.351 154.113 303.802 153.174L251.151 145.644C244.602 144.705 240.932 137.537 244.09 131.692H244.068Z" fill="white"/>
</svg>
