<svg width="512" height="512" viewBox="0 0 512 512" fill="none" xmlns="http://www.w3.org/2000/svg">
<path d="M256 0C114.837 0 0 114.837 0 256C0 397.163 114.837 512 256 512C397.163 512 512 397.163 512 256C512 114.837 397.163 0 256 0ZM256 469.333C138.368 469.333 42.6667 373.632 42.6667 256C42.6667 138.368 138.368 42.6667 256 42.6667C373.632 42.6667 469.333 138.368 469.333 256C469.333 373.632 373.632 469.333 256 469.333ZM341.333 298.667C341.333 333.952 312.619 362.667 277.333 362.667V384C277.333 395.797 267.797 405.333 256 405.333C244.203 405.333 234.667 395.797 234.667 384V362.667H228.949C206.187 362.667 184.939 350.421 173.525 330.688C167.616 320.469 171.115 307.435 181.291 301.547C191.509 295.595 204.565 299.136 210.432 309.312C214.251 315.925 221.333 320 228.928 320H277.312C289.088 320 298.645 310.443 298.645 298.667C298.645 290.603 292.864 283.776 284.907 282.453L220.032 271.637C191.403 266.88 170.645 242.347 170.645 213.333C170.645 178.048 199.36 149.333 234.645 149.333V128C234.645 116.224 244.181 106.667 255.979 106.667C267.776 106.667 277.312 116.224 277.312 128V149.333H283.029C305.792 149.333 327.04 161.6 338.453 181.333C344.363 191.531 340.864 204.565 330.688 210.475C320.448 216.384 307.413 212.885 301.547 202.688C297.728 196.096 290.645 192.021 283.051 192.021H234.667C222.891 192.021 213.333 201.6 213.333 213.355C213.333 221.419 219.115 228.245 227.072 229.568L291.947 240.384C320.576 245.141 341.333 269.675 341.333 298.688V298.667Z" fill="white"/>
</svg>
