<svg width="512" height="512" viewBox="0 0 512 512" fill="none" xmlns="http://www.w3.org/2000/svg">
<g clip-path="url(#clip0_15_2)">
<path d="M361.579 356.309C365.269 337.429 359.36 318.037 345.771 304.448L207.552 166.229C193.963 152.619 174.549 146.731 155.712 150.421C136.853 154.133 121.131 166.891 113.664 184.64L3.83995 445.461C-3.75472 463.488 0.277283 484.075 14.1013 497.899C23.2959 507.093 35.4773 511.957 47.8933 511.957C54.1653 511.957 60.5013 510.699 66.5599 508.16L327.403 398.357C345.131 390.891 357.909 375.168 361.6 356.309H361.579ZM49.9839 468.821C47.8719 469.739 45.9306 469.355 44.2666 467.712C42.6026 466.069 42.24 464.128 43.1573 461.973L117.227 286.037L225.941 394.731L49.9839 468.821ZM319.723 348.096C319.253 350.443 317.483 356.224 310.827 359.019L268.395 376.875L135.104 243.605L152.981 201.152C155.776 194.517 161.557 192.725 163.904 192.277C164.608 192.128 165.632 192 166.848 192C169.749 192 173.803 192.789 177.387 196.373L315.605 334.592C320.704 339.691 320.171 345.728 319.723 348.096ZM292.779 8.04267C300.139 -1.10933 313.387 -2.624 322.56 4.58667C324.331 5.99467 366.293 39.808 362.624 97.3653C361.195 119.915 352.555 141.717 336.981 162.24C332.8 167.765 326.421 170.688 319.979 170.688C315.499 170.688 310.955 169.28 307.093 166.357C297.707 159.232 295.872 145.856 302.997 136.469C313.408 122.752 319.125 108.693 320.021 94.6773C322.24 59.8827 297.024 38.8907 295.957 38.016C286.891 30.592 285.419 17.1947 292.757 8.08533L292.779 8.04267ZM502.976 294.763C499.243 297.387 494.955 298.667 490.709 298.667C484.075 298.667 477.568 295.595 473.408 289.856C472.768 289.024 463.595 277.333 448.021 277.333C440.704 277.333 434.219 279.424 428.757 283.541C419.349 290.667 405.973 288.768 398.869 279.381C391.765 269.995 393.643 256.597 403.051 249.515C415.915 239.808 431.467 234.688 448.021 234.688C478.571 234.688 500.16 253.781 508.117 265.067C514.901 274.688 512.597 288 502.976 294.805V294.763ZM448.021 32C448.021 14.336 462.357 0 480.021 0C497.685 0 512.021 14.336 512.021 32C512.021 49.664 497.685 64 480.021 64C462.357 64 448.021 49.664 448.021 32ZM405.355 138.667C405.355 121.003 419.691 106.667 437.355 106.667C455.019 106.667 469.355 121.003 469.355 138.667C469.355 156.331 455.019 170.667 437.355 170.667C419.691 170.667 405.355 156.331 405.355 138.667ZM170.667 53.3333C170.667 35.6693 185.003 21.3333 202.667 21.3333C220.331 21.3333 234.667 35.6693 234.667 53.3333C234.667 70.9973 220.331 85.3333 202.667 85.3333C185.003 85.3333 170.667 70.9973 170.667 53.3333ZM490.667 394.667C490.667 412.331 476.331 426.667 458.667 426.667C441.003 426.667 426.667 412.331 426.667 394.667C426.667 377.003 441.003 362.667 458.667 362.667C476.331 362.667 490.667 377.003 490.667 394.667ZM21.3333 74.6667C21.3333 57.0027 35.6693 42.6667 53.3333 42.6667C70.9973 42.6667 85.3333 57.0027 85.3333 74.6667C85.3333 92.3307 70.9973 106.667 53.3333 106.667C35.6693 106.667 21.3333 92.3307 21.3333 74.6667ZM384 480C384 497.664 369.664 512 352 512C334.336 512 320 497.664 320 480C320 462.336 334.336 448 352 448C369.664 448 384 462.336 384 480Z" fill="white"/>
</g>
<defs>
<clipPath id="clip0_15_2">
<rect width="512" height="512" fill="white"/>
</clipPath>
</defs>
</svg>
