<svg width="513" height="513" viewBox="0 0 513 513" fill="none" xmlns="http://www.w3.org/2000/svg">
<g clip-path="url(#clip0_60_40)">
<path d="M25.0513 408.661C9.01585 424.692 0.00465939 446.436 -0.000183105 469.11L-0.000183105 512.992H43.8827C66.5568 512.988 88.3006 503.976 104.331 487.941L389.538 202.735L310.258 123.455L25.0513 408.661Z" fill="white"/>
<path d="M494.721 18.2787C489.516 13.0682 483.335 8.93475 476.531 6.11455C469.728 3.29436 462.435 1.84277 455.07 1.84277C447.705 1.84277 440.412 3.29436 433.609 6.11455C426.805 8.93475 420.624 13.0682 415.419 18.2787L340.479 93.2408L419.759 172.521L494.721 97.58C499.931 92.3749 504.065 86.1939 506.885 79.3904C509.705 72.5869 511.157 65.2942 511.157 57.9293C511.157 50.5645 509.705 43.2718 506.885 36.4683C504.065 29.6647 499.931 23.4838 494.721 18.2787V18.2787Z" fill="white"/>
</g>
<defs>
<clipPath id="clip0_60_40">
<rect width="513" height="513" fill="white"/>
</clipPath>
</defs>
</svg>
