<svg width="430" height="513" viewBox="0 0 430 513" fill="none" xmlns="http://www.w3.org/2000/svg">
<path d="M214.507 128.043C197.629 128.043 181.131 133.047 167.098 142.424C153.065 151.801 142.128 165.128 135.669 180.72C129.21 196.313 127.52 213.471 130.813 230.024C134.106 246.577 142.233 261.782 154.167 273.716C166.101 285.65 181.306 293.777 197.859 297.07C214.412 300.362 231.57 298.672 247.162 292.214C262.755 285.755 276.082 274.818 285.459 260.785C294.835 246.752 299.84 230.253 299.84 213.376C299.84 190.744 290.85 169.039 274.847 153.036C258.843 137.033 237.139 128.043 214.507 128.043ZM214.507 256.043C206.068 256.043 197.819 253.54 190.802 248.852C183.786 244.164 178.317 237.5 175.088 229.704C171.859 221.908 171.014 213.329 172.66 205.052C174.306 196.776 178.37 189.173 184.337 183.206C190.304 177.239 197.906 173.176 206.183 171.529C214.459 169.883 223.038 170.728 230.835 173.957C238.631 177.187 245.294 182.655 249.983 189.672C254.671 196.688 257.173 204.937 257.173 213.376C257.173 224.692 252.678 235.544 244.677 243.546C236.675 251.547 225.823 256.043 214.507 256.043Z" fill="white"/>
<path d="M214.507 512.043C196.543 512.135 178.818 507.921 162.817 499.756C146.816 491.59 133.005 479.71 122.539 465.109C41.2373 352.96 0 268.651 0 214.507C0 157.616 22.5997 103.055 62.8275 62.8276C103.055 22.5997 157.616 0 214.507 0C271.397 0 325.958 22.5997 366.186 62.8276C406.414 103.055 429.013 157.616 429.013 214.507C429.013 268.651 387.776 352.96 306.475 465.109C296.009 479.71 282.197 491.59 266.196 499.756C250.195 507.921 232.471 512.135 214.507 512.043ZM214.507 46.5707C169.972 46.6215 127.275 64.3355 95.7839 95.8266C64.2928 127.318 46.5788 170.014 46.528 214.549C46.528 257.429 86.912 336.725 160.213 437.824C166.436 446.395 174.6 453.371 184.037 458.182C193.473 462.992 203.915 465.5 214.507 465.5C225.099 465.5 235.54 462.992 244.977 458.182C254.413 453.371 262.577 446.395 268.8 437.824C342.101 336.725 382.485 257.429 382.485 214.549C382.435 170.014 364.721 127.318 333.229 95.8266C301.738 64.3355 259.042 46.6215 214.507 46.5707Z" fill="white"/>
</svg>
