<svg width="512" height="512" viewBox="0 0 512 512" fill="none" xmlns="http://www.w3.org/2000/svg">
<path d="M469.333 213.333H298.667V42.6667C298.667 31.3508 294.171 20.4983 286.17 12.4968C278.168 4.49523 267.316 0 256 0C244.684 0 233.832 4.49523 225.83 12.4968C217.829 20.4983 213.333 31.3508 213.333 42.6667V213.333H42.6667C31.3508 213.333 20.4983 217.829 12.4968 225.83C4.49523 233.832 0 244.684 0 256C0 267.316 4.49523 278.168 12.4968 286.17C20.4983 294.171 31.3508 298.667 42.6667 298.667H213.333V469.333C213.333 480.649 217.829 491.502 225.83 499.503C233.832 507.505 244.684 512 256 512C267.316 512 278.168 507.505 286.17 499.503C294.171 491.502 298.667 480.649 298.667 469.333V298.667H469.333C480.649 298.667 491.502 294.171 499.503 286.17C507.505 278.168 512 267.316 512 256C512 244.684 507.505 233.832 499.503 225.83C491.502 217.829 480.649 213.333 469.333 213.333Z" fill="white"/>
</svg>
