<svg width="363" height="512" viewBox="0 0 363 512" fill="none" xmlns="http://www.w3.org/2000/svg">
<path d="M182 256C205.932 256 229.326 248.493 249.224 234.428C269.122 220.363 284.631 200.372 293.789 176.983C302.948 153.595 305.344 127.858 300.675 103.028C296.006 78.1989 284.482 55.3915 267.56 37.4904C250.638 19.5893 229.078 7.39845 205.606 2.45954C182.134 -2.47937 157.805 0.0554606 135.695 9.74348C113.585 19.4315 94.6878 35.8376 81.3922 56.8871C68.0965 77.9365 61 102.684 61 128C61.032 161.937 73.7905 194.475 96.4755 218.472C119.16 242.47 149.919 255.966 182 256ZM182 42.6667C197.954 42.6667 213.55 47.6714 226.816 57.048C240.082 66.4245 250.421 79.7518 256.526 95.3444C262.632 110.937 264.229 128.095 261.117 144.648C258.004 161.201 250.321 176.406 239.04 188.34C227.758 200.274 213.385 208.401 197.737 211.694C182.089 214.986 165.87 213.296 151.13 206.838C136.39 200.379 123.792 189.442 114.928 175.409C106.064 161.376 101.333 144.877 101.333 128C101.333 105.368 109.832 83.6634 124.96 67.6603C140.088 51.6572 160.606 42.6667 182 42.6667Z" fill="white"/>
<path d="M181.5 299C133.38 299.056 87.2454 319.271 53.2191 355.21C19.1928 391.148 0.0533782 439.875 0 490.7C0 496.349 2.1247 501.767 5.90668 505.761C9.68866 509.756 14.8181 512 20.1667 512C25.5152 512 30.6447 509.756 34.4266 505.761C38.2086 501.767 40.3333 496.349 40.3333 490.7C40.3333 451.156 55.2062 413.232 81.6801 385.27C108.154 357.309 144.06 341.6 181.5 341.6C218.94 341.6 254.846 357.309 281.32 385.27C307.794 413.232 322.667 451.156 322.667 490.7C322.667 496.349 324.791 501.767 328.573 505.761C332.355 509.756 337.485 512 342.833 512C348.182 512 353.311 509.756 357.093 505.761C360.875 501.767 363 496.349 363 490.7C362.947 439.875 343.807 391.148 309.781 355.21C275.755 319.271 229.62 299.056 181.5 299Z" fill="white"/>
</svg>
