<svg width="513" height="511" viewBox="0 0 513 511" fill="none" xmlns="http://www.w3.org/2000/svg">
<path d="M490.688 169.344V83.3067C502.677 81.5573 512.021 71.68 512.021 59.2C512.021 48.5333 505.195 39.0613 495.061 35.6693L391.872 1.28C386.773 -0.426667 381.269 -0.426667 376.192 1.28L272.981 35.6907C262.848 39.0613 256.021 48.5333 256.021 59.2213C256.021 71.68 265.365 81.5573 277.355 83.328V169.365C265.579 169.365 256.021 178.923 256.021 190.699C256.021 202.475 265.579 212.032 277.355 212.032H490.688C502.485 212.032 512.021 202.475 512.021 190.699C512.021 178.923 502.485 169.365 490.688 169.365V169.344ZM448.021 169.344H405.355V84.0107H448.021V169.344ZM320.021 84.0107H362.688V169.344H320.021V84.0107ZM256.021 357.888C256.021 347.221 249.195 337.749 239.061 334.357L135.851 299.947C130.752 298.24 125.248 298.24 120.171 299.947L16.96 334.357C6.82667 337.728 0 347.2 0 357.888C0 370.347 9.344 380.224 21.3333 381.995V468.032C9.55733 468.032 0 477.568 0 489.365C0 501.163 9.55733 510.699 21.3333 510.699H234.667C246.443 510.699 256 501.163 256 489.365C256 477.568 246.443 468.032 234.667 468.032V381.995C246.656 380.245 256 370.368 256 357.888H256.021ZM64.0213 382.677H106.688V468.011H64.0213V382.677ZM149.355 468.011V382.677H192.021V468.011H149.355ZM505.771 463.595C514.112 471.936 514.112 485.419 505.771 493.76C501.611 497.92 496.149 500.011 490.688 500.011C485.227 500.011 479.765 497.92 475.605 493.76L428.523 446.677H341.355C317.824 446.677 298.688 427.541 298.688 404.011V328.491L164.245 213.269C154.773 205.163 149.355 193.344 149.355 180.864V105.344H72.8533C61.4613 105.344 50.752 100.907 42.688 92.8427L6.272 56.4267C-2.06933 48.0853 -2.06933 34.6027 6.272 26.2613C14.6133 17.92 28.096 17.92 36.4373 26.2613L72.8533 62.6773H149.355C172.885 62.6773 192.021 81.8133 192.021 105.344V180.864L326.443 296.085C335.915 304.213 341.355 316.032 341.355 328.491V404.011H428.523C439.744 404.011 450.752 408.576 458.688 416.512L505.771 463.595Z" fill="white"/>
</svg>
