<svg width="513" height="513" viewBox="0 0 513 513" fill="none" xmlns="http://www.w3.org/2000/svg">
<path d="M506.432 476.267L379.094 348.928C413.795 306.488 430.856 252.333 426.749 197.665C422.641 142.998 397.679 92.0008 357.026 55.222C316.373 18.4431 263.138 -1.30345 208.334 0.0668287C153.53 1.43711 101.349 23.8193 62.5839 62.5839C23.8193 101.349 1.43711 153.53 0.0668287 208.334C-1.30345 263.138 18.4431 316.373 55.222 357.026C92.0008 397.679 142.998 422.641 197.665 426.749C252.333 430.856 306.488 413.795 348.928 379.094L476.267 506.432C480.29 510.318 485.679 512.469 491.273 512.42C496.866 512.371 502.217 510.128 506.172 506.172C510.128 502.217 512.371 496.866 512.42 491.273C512.469 485.679 510.318 480.29 506.432 476.267ZM214.016 384.683C180.261 384.683 147.265 374.673 119.199 355.92C91.1329 337.167 69.2581 310.513 56.3407 279.327C43.4234 248.142 40.0436 213.827 46.6288 180.721C53.214 147.615 69.4685 117.205 93.3366 93.3366C117.205 69.4685 147.615 53.214 180.721 46.6288C213.827 40.0436 248.142 43.4234 279.327 56.3407C310.513 69.2581 337.167 91.1329 355.92 119.199C374.673 147.265 384.683 180.261 384.683 214.016C384.632 259.264 366.635 302.644 334.64 334.64C302.644 366.635 259.264 384.632 214.016 384.683Z" fill="white"/>
</svg>
