<svg width="427" height="512" viewBox="0 0 427 512" fill="none" xmlns="http://www.w3.org/2000/svg">
<path d="M353.728 45.6585L220.075 1.09314C215.699 -0.364379 210.968 -0.364379 206.592 1.09314L72.9387 45.6585C51.6887 52.7173 33.2036 66.2933 20.1098 84.4576C7.01598 102.622 -0.0205157 124.451 4.49305e-05 146.842V256.005C4.49305e-05 417.349 196.267 506.458 204.672 510.17C207.399 511.382 210.35 512.008 213.333 512.008C216.317 512.008 219.268 511.382 221.995 510.17C230.4 506.458 426.667 417.349 426.667 256.005V146.842C426.687 124.451 419.651 102.622 406.557 84.4576C393.463 66.2933 374.978 52.7173 353.728 45.6585ZM384 256.005C384 372.378 249.195 448.709 213.333 466.97C177.429 448.773 42.6667 372.677 42.6667 256.005V146.842C42.668 133.408 46.8966 120.315 54.7534 109.418C62.6103 98.5213 73.697 90.373 86.4427 86.1278L213.333 43.8238L340.224 86.1278C352.97 90.373 364.056 98.5213 371.913 109.418C379.77 120.315 383.999 133.408 384 146.842V256.005Z" fill="white"/>
<path d="M283.734 177.072L194.39 266.672L146.518 216.752C144.596 214.651 142.274 212.956 139.688 211.767C137.102 210.578 134.303 209.918 131.458 209.827C128.613 209.736 125.778 210.215 123.121 211.237C120.464 212.258 118.038 213.801 115.987 215.774C113.935 217.747 112.299 220.111 111.175 222.727C110.051 225.342 109.462 228.156 109.443 231.002C109.423 233.849 109.973 236.671 111.061 239.301C112.149 241.932 113.752 244.318 115.776 246.32L164.971 297.52C168.64 301.482 173.074 304.66 178.006 306.86C182.938 309.06 188.265 310.237 193.664 310.32H194.368C199.66 310.337 204.903 309.303 209.792 307.278C214.681 305.253 219.119 302.277 222.848 298.522L313.984 207.386C315.975 205.4 317.554 203.041 318.633 200.444C319.712 197.848 320.269 195.064 320.272 192.252C320.275 189.44 319.724 186.655 318.651 184.055C317.577 181.456 316.003 179.094 314.016 177.104C312.03 175.113 309.671 173.533 307.074 172.455C304.477 171.376 301.694 170.819 298.882 170.816C296.07 170.813 293.284 171.364 290.685 172.437C288.086 173.511 285.724 175.085 283.734 177.072Z" fill="white"/>
</svg>
