<svg width="512" height="512" viewBox="0 0 512 512" fill="none" xmlns="http://www.w3.org/2000/svg">
<path d="M416.018 511.998C411.754 512.001 407.587 510.726 404.054 508.338C400.522 505.95 397.786 502.558 396.199 498.6L378.194 453.523L333.053 434.515C329.18 432.805 325.9 429.989 323.623 426.421C321.345 422.853 320.173 418.691 320.253 414.459C320.333 410.227 321.661 406.112 324.071 402.632C326.481 399.152 329.865 396.462 333.799 394.899L378.343 378.024L396.199 333.395C397.842 329.495 400.598 326.166 404.123 323.826C407.649 321.485 411.786 320.236 416.018 320.236C420.25 320.236 424.387 321.485 427.913 323.826C431.438 326.166 434.194 329.495 435.837 333.395L453.778 378.195L498.578 396.136C502.486 397.771 505.823 400.525 508.171 404.051C510.518 407.577 511.771 411.719 511.771 415.955C511.771 420.191 510.518 424.333 508.171 427.859C505.823 431.385 502.486 434.139 498.578 435.774L453.778 453.715L435.837 498.515C434.264 502.489 431.534 505.899 428 508.303C424.466 510.707 420.292 511.994 416.018 511.998ZM213.351 447.998C204.135 448.109 195.13 445.232 187.685 439.798C180.24 434.364 174.755 426.665 172.05 417.854L137.618 310.184L29.6073 274.046C20.8897 271.132 13.324 265.523 8.00278 258.028C2.6816 250.533 -0.11955 241.541 0.00391279 232.35C0.127375 223.159 3.16906 214.245 8.68964 206.896C14.2102 199.547 21.9239 194.143 30.7166 191.464L137.874 158.739L173.97 50.9204C176.654 42.0644 182.205 34.3516 189.751 28.9953C197.297 23.6389 206.41 20.9428 215.655 21.3311C224.873 21.3436 233.84 24.3411 241.212 29.8751C248.584 35.409 253.966 43.1817 256.551 52.0298L289.234 159.016L396.541 193.363C405.196 196.266 412.72 201.815 418.051 209.226C423.382 216.637 426.25 225.535 426.25 234.664C426.25 243.794 423.382 252.692 418.051 260.103C412.72 267.514 405.196 273.063 396.541 275.966L289.042 310.355L254.653 417.854C251.948 426.665 246.463 434.364 239.018 439.798C231.572 445.232 222.568 448.109 213.351 447.998ZM215.741 64.4884L174.951 182.696C173.876 185.923 172.045 188.846 169.61 191.221C167.176 193.596 164.209 195.354 160.957 196.35L43.1753 232.275L161.383 273.171C164.564 274.231 167.449 276.025 169.807 278.408C172.164 280.792 173.926 283.697 174.951 286.888L212.711 404.862L251.751 286.888C252.787 283.649 254.582 280.704 256.987 278.3C259.391 275.895 262.336 274.1 265.575 273.064L383.549 235.326C383.7 235.284 383.844 235.219 383.975 235.134L265.575 196.264C262.289 195.214 259.307 193.382 256.885 190.926C254.462 188.47 252.672 185.463 251.666 182.163L215.741 64.4884ZM437.351 149.331C432.596 149.331 427.976 147.742 424.227 144.816C420.478 141.89 417.814 137.795 416.658 133.182L409.042 102.675L378.471 94.4618C373.877 93.2273 369.826 90.4922 366.964 86.6914C364.103 82.8907 362.593 78.2423 362.677 73.4853C362.76 68.7282 364.431 64.1356 367.425 60.4374C370.418 56.7393 374.561 54.1478 379.197 53.0751L409.063 46.1418L416.658 16.1471C417.814 11.5343 420.478 7.43993 424.227 4.51443C427.977 1.58893 432.596 0 437.351 0C442.107 0 446.726 1.58893 450.475 4.51443C454.224 7.43993 456.889 11.5343 458.045 16.1471L465.597 46.3978L495.847 53.9711C500.46 55.1272 504.554 57.7914 507.48 61.5406C510.405 65.2897 511.994 69.9089 511.994 74.6644C511.994 79.4199 510.405 84.0391 507.48 87.7883C504.554 91.5375 500.46 94.2017 495.847 95.3578L465.597 102.931L458.045 133.182C456.889 137.795 454.225 141.89 450.476 144.816C446.727 147.742 442.107 149.331 437.351 149.331Z" fill="white"/>
</svg>
