<svg width="384" height="512" viewBox="0 0 384 512" fill="none" xmlns="http://www.w3.org/2000/svg">
<path d="M277.333 0H274.56C265.013 0.0907054 255.766 3.34962 248.271 9.26505C240.776 15.1805 235.458 23.4175 233.152 32.6827C230.682 41.7032 225.317 49.6623 217.881 55.3356C210.446 61.0088 201.353 64.0818 192 64.0818C182.647 64.0818 173.554 61.0088 166.119 55.3356C158.683 49.6623 153.318 41.7032 150.848 32.6827C148.542 23.4175 143.224 15.1805 135.729 9.26505C128.235 3.34962 118.987 0.0907054 109.44 0L106.667 0C78.3873 0.0338743 51.2759 11.2828 31.2794 31.2794C11.2828 51.2759 0.0338743 78.3873 0 106.667V448C0 464.974 6.74284 481.253 18.7452 493.255C30.7475 505.257 47.0261 512 64 512H109.44C118.987 511.909 128.235 508.65 135.729 502.735C143.224 496.82 148.542 488.583 150.848 479.317C153.318 470.297 158.683 462.338 166.119 456.664C173.554 450.991 182.647 447.918 192 447.918C201.353 447.918 210.446 450.991 217.881 456.664C225.317 462.338 230.682 470.297 233.152 479.317C235.458 488.583 240.776 496.82 248.271 502.735C255.766 508.65 265.013 511.909 274.56 512H320C336.974 512 353.253 505.257 365.255 493.255C377.257 481.253 384 464.974 384 448V106.667C383.966 78.3873 372.717 51.2759 352.721 31.2794C332.724 11.2828 305.613 0.0338743 277.333 0ZM320 469.333L274.283 467.989C269.272 449.886 258.428 433.942 243.433 422.63C228.438 411.317 210.129 405.269 191.346 405.422C172.563 405.575 154.355 411.921 139.546 423.477C124.737 435.032 114.155 451.151 109.44 469.333H64C58.342 469.333 52.9158 467.086 48.9151 463.085C44.9143 459.084 42.6667 453.658 42.6667 448V362.667H85.3333C90.9913 362.667 96.4175 360.419 100.418 356.418C104.419 352.418 106.667 346.991 106.667 341.333C106.667 335.675 104.419 330.249 100.418 326.248C96.4175 322.248 90.9913 320 85.3333 320H42.6667V106.667C42.6667 89.6928 49.4095 73.4142 61.4118 61.4118C73.4142 49.4095 89.6928 42.6667 106.667 42.6667L109.717 44.0107C114.714 62.0038 125.461 77.8676 140.318 89.1808C155.175 100.494 173.326 106.635 192 106.667C210.926 106.506 229.281 100.166 244.273 88.6136C259.265 77.0608 270.072 60.9268 275.051 42.6667H277.333C294.307 42.6667 310.586 49.4095 322.588 61.4118C334.591 73.4142 341.333 89.6928 341.333 106.667V320H298.667C293.009 320 287.582 322.248 283.582 326.248C279.581 330.249 277.333 335.675 277.333 341.333C277.333 346.991 279.581 352.418 283.582 356.418C287.582 360.419 293.009 362.667 298.667 362.667H341.333V448C341.333 453.658 339.086 459.084 335.085 463.085C331.084 467.086 325.658 469.333 320 469.333Z" fill="white"/>
<path d="M213.333 320H170.667C165.009 320 159.582 322.248 155.582 326.248C151.581 330.249 149.333 335.675 149.333 341.333C149.333 346.991 151.581 352.418 155.582 356.418C159.582 360.419 165.009 362.667 170.667 362.667H213.333C218.991 362.667 224.417 360.419 228.418 356.418C232.419 352.418 234.667 346.991 234.667 341.333C234.667 335.675 232.419 330.249 228.418 326.248C224.417 322.248 218.991 320 213.333 320Z" fill="white"/>
</svg>
